<svg xmlns="http://www.w3.org/2000/svg" width="243.009" height="69.997" viewBox="0 0 243.009 69.997">
  <g id="logo-serempre-white" transform="translate(-290.996 -171)">
    <path id="LETRAS" d="M17.268,27.483q0,5.814-8.8,5.813H6.184Q1.963,33.3,0,30.814l1.751-1.055a5.85,5.85,0,0,0,4.433,1.689h3.71q5.413,0,5.416-3.814,0-3.266-5.158-4.7L5.786,21.717Q.165,20.149.163,15.926q0-5.3,7.118-5.3H10.76q4.268,0,6.16,2.377L15.168,14.05a6.2,6.2,0,0,0-4.62-1.572H6.557q-4.433,0-4.433,3.556,0,2.692,4.57,3.975L11.246,21.3Q17.27,23,17.268,27.483Zm24.944-6.216a3.882,3.882,0,0,1-.119,1.021h-20.8a9.589,9.589,0,0,0,2.858,6.663,9.467,9.467,0,0,0,6.833,2.51,14.673,14.673,0,0,0,4.471-.72,8.9,8.9,0,0,0,3.876-2.162L40.8,29.952Q37.488,33.3,30.986,33.3a11.594,11.594,0,0,1-8.521-3.239,11.311,11.311,0,0,1-3.278-8.4A11.493,11.493,0,0,1,22.4,13.3,11.115,11.115,0,0,1,30.746,10a11.237,11.237,0,0,1,8.227,3.187,10.861,10.861,0,0,1,3.238,8.079ZM40.1,20.455a9.633,9.633,0,0,0-2.9-6.287,9.036,9.036,0,0,0-6.476-2.4,9.108,9.108,0,0,0-6.5,2.4,9.6,9.6,0,0,0-2.931,6.287H40.107Zm16.816-7.592-.134-.023c.156,0-.716-.111-2.606-.324a6.569,6.569,0,0,0-5.42,2.852q-2.1,2.733-2.1,7.831V33.3H44.77V10.723h1.891V15.14a8.575,8.575,0,0,1,7.787-4.509q.39.049,2.466.351l.007,1.884Zm25.583,8.4a3.778,3.778,0,0,1-.12,1.023h-20.8a9.62,9.62,0,0,0,2.861,6.663,9.427,9.427,0,0,0,6.833,2.51,14.673,14.673,0,0,0,4.47-.72,8.873,8.873,0,0,0,3.875-2.162l1.466,1.373Q77.779,33.3,71.28,33.3a11.589,11.589,0,0,1-8.521-3.239,11.319,11.319,0,0,1-3.278-8.4A11.494,11.494,0,0,1,62.7,13.3,11.107,11.107,0,0,1,71.039,10a11.241,11.241,0,0,1,8.226,3.187A10.86,10.86,0,0,1,82.5,21.265Zm-2.107-.81a9.636,9.636,0,0,0-2.906-6.289,9.958,9.958,0,0,0-12.977,0,9.576,9.576,0,0,0-2.93,6.289H80.4Zm35.366,12.212h-1.981V18.445a6.81,6.81,0,0,0-1.674-4.764,6.026,6.026,0,0,0-4.693-1.934,6.1,6.1,0,0,0-4.72,1.938,6.817,6.817,0,0,0-1.671,4.764V32.667h-1.93V18.445a6.8,6.8,0,0,0-1.676-4.764,6.631,6.631,0,0,0-9.266-.092,6.309,6.309,0,0,0-1.7,3.544V32.667H84.423V10.419h2.025v2.25A7.892,7.892,0,0,1,92.819,10a7.985,7.985,0,0,1,7.24,4.325A8.161,8.161,0,0,1,107.313,10a7.927,7.927,0,0,1,6.319,2.575,9.434,9.434,0,0,1,2.124,6.468Zm25.583-10.658a11.6,11.6,0,0,1-3.16,8.433,11.177,11.177,0,0,1-8.414,3.251,11.728,11.728,0,0,1-4.235-.769,11.07,11.07,0,0,1-5.2-3.846V44h-1.985l-.028-.02V10h2.016v5.3a12,12,0,0,1,17.96-1.726,11.658,11.658,0,0,1,3.046,8.435Zm-2.107-.045a10.065,10.065,0,0,0-2.506-7.089,9.025,9.025,0,0,0-6.974-2.8,8.442,8.442,0,0,0-7.183,3.332,12.435,12.435,0,0,0-2.237,7.745v3.056a11.942,11.942,0,0,0,5.2,4.688,9.55,9.55,0,0,0,4.229.955,9.047,9.047,0,0,0,7-2.8,10.069,10.069,0,0,0,2.475-7.092Zm16.177-9.1-.134-.023c.156,0-.715-.11-2.606-.324a6.572,6.572,0,0,0-5.421,2.852q-2.1,2.733-2.1,7.831V33.3h-1.892V10.723h1.892V15.14a8.573,8.573,0,0,1,7.789-4.509q.39.049,2.466.351l.006,1.884ZM181,21.268a3.82,3.82,0,0,1-.117,1.021H160.071a9.611,9.611,0,0,0,2.862,6.661,9.462,9.462,0,0,0,6.834,2.512,14.664,14.664,0,0,0,4.471-.721,8.906,8.906,0,0,0,3.879-2.16l1.465,1.371Q176.273,33.3,169.77,33.3a11.6,11.6,0,0,1-8.523-3.239,11.3,11.3,0,0,1-3.275-8.4A11.493,11.493,0,0,1,161.19,13.3a11.119,11.119,0,0,1,8.343-3.3,11.242,11.242,0,0,1,8.227,3.187A10.857,10.857,0,0,1,181,21.268Zm-2.1-.81a9.661,9.661,0,0,0-2.907-6.287,9.964,9.964,0,0,0-12.981,0,9.593,9.593,0,0,0-2.934,6.287Z" transform="translate(353 179)" fill="#fff"/>
    <g id="ICON" transform="translate(288 171.19)">
      <g id="Grupo_5" data-name="Grupo 5" transform="translate(3 -0.19)">
        <path id="_1" data-name="1" d="M9.415,26.066,48.781,8.81l.049,22.943L.327,53,.3,40.534H.319a15.27,15.27,0,0,1,9.1-14.468Z" transform="translate(-0.304 -8.81)" fill="#20bae4"/>
      </g>
      <g id="Grupo_6" data-name="Grupo 6" transform="translate(3 25.617)">
        <path id="_1-2" data-name="1" d="M39.887,35.748.05,53,0,30.06,49.083,8.81l.024,12.47h-.015A15.258,15.258,0,0,1,39.887,35.748ZM50,40.953a4,4,0,1,1-1.269-2.791A4.024,4.024,0,0,1,50,40.953h-.006Z" transform="translate(0 -8.81)" fill="#0a71b3"/>
      </g>
    </g>
  </g>
</svg>
